<?xml version="1.0" standalone="no"?>
<!DOCTYPE svg PUBLIC "-//W3C//DTD SVG 1.1//EN" "http://www.w3.org/Graphics/SVG/1.1/DTD/svg11.dtd">
<svg width="64px" height="60px" version="1.1" xmlns="http://www.w3.org/2000/svg" xmlns:xlink="http://www.w3.org/1999/xlink" xml:space="preserve" style="fill-rule:evenodd;clip-rule:evenodd;stroke-linejoin:round;stroke-miterlimit:1.41421;">
    <g id="Layer_1">
        <g>
            <g>
                <path d="M40.0956,54.9895C39.9888,54.9691 39.8409,54.9737 39.6984,54.9633C39.3711,54.9394 39.2971,54.8752 39.2071,54.8181C39.1051,54.7533 39.0033,54.6901 38.8686,54.5693C38.6673,54.3888 38.6377,54.0805 38.6194,53.8767C38.5959,53.6148 38.5872,53.3818 38.5711,53.1158C38.4667,51.3901 38.261,44.3143 38.1954,44.1602C38.1771,44.1174 38.1647,44.0752 38.1486,44.0332C37.6832,42.8173 36.8176,41.9056 36.8176,41.9056C36.8176,41.9056 42.6406,41.9492 45.8985,38.0228C48.2809,35.1514 48.5346,31.4116 48.3618,28.3365C48.1864,25.2147 45.8985,22.6792 45.8985,22.6792C45.8985,22.6792 46.4872,20.6858 46.3369,18.9842C46.2295,17.7695 45.5853,15.8529 45.5853,15.8529C45.5853,15.8529 44.8072,15.7574 43.1429,16.2286C40.5061,16.9752 38.759,18.5458 38.759,18.5458C38.759,18.5458 36.0625,17.7206 32.0162,17.6899C28.6155,17.6641 25.8788,18.5249 25.8788,18.5249C25.8788,18.5249 23.2099,16.8315 21.6619,16.2912C20.4617,15.8723 18.9063,15.8529 18.9063,15.8529C18.9063,15.8529 18.1917,17.6691 18.1548,19.4435C18.1111,21.5405 18.7184,22.6166 18.7184,22.6166C18.7184,22.6166 16.6159,24.5435 16.1507,27.9398C15.9809,29.1793 15.5054,34.338 18.8228,38.3359C21.8926,42.0354 27.6114,41.9682 27.6114,41.9682C27.6114,41.9682 26.7033,42.939 26.4424,43.4922C26.1814,44.0454 26.0527,44.0001 26.0458,45.2875C26.0458,45.2875 25.2024,46.0534 23.2902,46.039C21.9123,46.0286 20.3054,45.8164 19.1568,44.0349C17.8606,42.0246 17.0797,41.5299 16.1507,41.0288C15.5563,40.7083 15.0127,40.6713 14.053,40.8396C13.7964,40.8846 13.877,40.7839 13.583,41.0288C13.118,41.4163 15.1696,42.2605 16.3386,43.9097C16.965,44.7933 17.147,45.7953 17.8416,46.7905C18.3322,47.4933 19.5917,49.0103 22.5387,49.2538C23.5592,49.3382 25.8788,49.0033 25.8788,49.0033C25.8788,49.0033 25.9282,53.8479 25.8641,54.074C25.7469,54.4881 25.3362,54.9069 24.9185,54.9383C24.6655,54.9572 24.4456,54.9866 24.2057,54.9063C14.1372,51.5336 6.88195,42.0244 6.88195,30.8207C6.88195,16.7953 18.2518,5.42549 32.2771,5.42549C46.3025,5.42549 57.6723,16.7953 57.6723,30.8207C57.6723,42.1181 50.2953,51.6925 40.0956,54.9895Z" style="fill:rgb(64,181,73);"/>
                <g>
                    <path d="M16.3106,41.4407C16.4866,41.5356 16.5661,41.7297 16.4882,41.8743C16.4102,42.019 16.2044,42.0593 16.0284,41.9644C15.8524,41.8696 15.7729,41.6755 15.8508,41.5308C15.9288,41.3862 16.1346,41.3459 16.3106,41.4407Z" style="fill:rgb(64,181,73);"/>
                </g>
                <g>
                    <path d="M17.4298,42.4793C17.5879,42.6387 17.6214,42.8617 17.5047,42.9773C17.3881,43.093 17.1654,43.0576 17.0074,42.8982C16.8494,42.7389 16.8158,42.5159 16.9325,42.4002C17.0492,42.2846 17.2718,42.32 17.4298,42.4793Z" style="fill:rgb(64,181,73);"/>
                </g>
                <g>
                    <path d="M18.4697,43.8516C18.619,44.0667 18.6144,44.3283 18.4594,44.4359C18.3044,44.5435 18.0578,44.4564 17.9085,44.2413C17.7591,44.0263 17.7637,43.7647 17.9187,43.6571C18.0737,43.5495 18.3204,43.6366 18.4697,43.8516Z" style="fill:rgb(64,181,73);"/>
                </g>
                <g>
                    <path d="M19.7234,45.2656C19.9362,45.4939 19.9878,45.7917 19.8386,45.9308C19.6894,46.0698 19.396,45.9976 19.1832,45.7693C18.9704,45.5411 18.9188,45.2433 19.068,45.1042C19.2171,44.9652 19.5106,45.0374 19.7234,45.2656Z" style="fill:rgb(64,181,73);"/>
                </g>
                <g>
                    <path d="M21.3371,46.1763C21.6337,46.2731 21.8229,46.5088 21.7596,46.7027C21.6963,46.8966 21.4046,46.9753 21.1079,46.8784C20.8112,46.7816 20.6221,46.5459 20.6853,46.352C20.7486,46.1582 21.0404,46.0795 21.3371,46.1763Z" style="fill:rgb(64,181,73);"/>
                </g>
                <g>
                    <path d="M23.2835,46.4871C23.5953,46.4757 23.8542,46.6317 23.8616,46.8355C23.8691,47.0393 23.6224,47.2138 23.3105,47.2252C22.9987,47.2366 22.7398,47.0806 22.7324,46.8768C22.7249,46.673 22.9716,46.4985 23.2835,46.4871Z" style="fill:rgb(64,181,73);"/>
                </g>
                <g>
                    <path d="M25.1958,46.2388C25.5057,46.2028 25.7761,46.3378 25.7997,46.5404C25.8232,46.743 25.5911,46.9364 25.2811,46.9725C24.9711,47.0085 24.7007,46.8735 24.6772,46.6709C24.6536,46.4683 24.8858,46.2749 25.1958,46.2388Z" style="fill:rgb(64,181,73);"/>
                </g>
                <g>
                    <path d="M18.4697,43.8516C18.619,44.0667 18.6144,44.3283 18.4594,44.4359C18.3044,44.5435 18.0578,44.4564 17.9085,44.2413C17.7591,44.0263 17.7637,43.7647 17.9187,43.6571C18.0737,43.5495 18.3204,43.6366 18.4697,43.8516Z" style="fill:rgb(64,181,73);"/>
                </g>
            </g>
        </g>
    </g>
</svg>
