<?xml version="1.0" encoding="utf-8"?>
<!-- Generator: Adobe Illustrator 15.0.0, SVG Export Plug-In . SVG Version: 6.00 Build 0)  -->
<!DOCTYPE svg PUBLIC "-//W3C//DTD SVG 1.1//EN" "http://www.w3.org/Graphics/SVG/1.1/DTD/svg11.dtd">
<svg version="1.1" id="Layer_1" xmlns="http://www.w3.org/2000/svg" xmlns:xlink="http://www.w3.org/1999/xlink" x="0px" y="0px"
	 width="64px" height="60px" viewBox="0 0 64 60" enable-background="new 0 0 64 60" xml:space="preserve">
<g>
	<path fill="#40B549" d="M21.853,38.297c-0.259-0.26-0.62-0.422-1.016-0.422h-6.422c-0.398,0-0.758,0.162-1.018,0.422
		c-0.261,0.26-0.422,0.621-0.422,1.016v15.381c0,0.396,0.161,0.758,0.422,1.017c0.26,0.261,0.619,0.422,1.018,0.422h6.422
		c0.396,0,0.757-0.161,1.016-0.422c0.26-0.259,0.422-0.621,0.422-1.017V39.313C22.274,38.918,22.112,38.557,21.853,38.297z
		 M13.86,38.762c0.144-0.143,0.336-0.229,0.555-0.229h6.422c0.216,0,0.409,0.087,0.552,0.229c0.142,0.143,0.229,0.336,0.229,0.551
		v0.34h-7.986v-0.34C13.632,39.098,13.72,38.902,13.86,38.762z M13.632,40.309h7.986v13.394h-7.986V40.309z M21.389,55.245
		c-0.143,0.142-0.336,0.229-0.552,0.229h-6.422c-0.219-0.002-0.411-0.088-0.555-0.229c-0.141-0.144-0.229-0.336-0.229-0.554v-0.334
		h7.986v0.334C21.618,54.909,21.53,55.104,21.389,55.245z"/>
	<circle fill="#40B549" cx="20.717" cy="39.108" r="0.317"/>
	<polyline fill="#40B549" points="15.403,39.338 19.847,39.338 19.847,38.846 15.403,38.846 	"/>
	<polyline fill="#40B549" points="15.403,55.172 19.847,55.172 19.847,54.68 15.403,54.68 	"/>
	<circle fill="#40B549" cx="14.86" cy="39.107" r="0.164"/>
	<circle fill="#40B549" cx="14.367" cy="39.107" r="0.164"/>
</g>
<g>
	<path fill="#40B549" d="M25.928,50.111c-0.315-0.002-0.614,0.096-0.874,0.26c-0.392,0.249-0.701,0.641-0.916,1.115
		c-0.215,0.474-0.336,1.033-0.336,1.634c0,0.8,0.215,1.53,0.582,2.08c0.184,0.274,0.408,0.505,0.67,0.669
		c0.26,0.165,0.559,0.262,0.874,0.262h1.919v-6.02H25.928z M27.19,55.475h-1.263c-0.181,0-0.354-0.055-0.524-0.16
		c-0.254-0.16-0.495-0.446-0.668-0.83c-0.172-0.381-0.277-0.854-0.277-1.363c0-0.682,0.188-1.292,0.471-1.713
		c0.142-0.211,0.305-0.373,0.475-0.48c0.17-0.105,0.344-0.158,0.524-0.158h1.263L27.19,55.475L27.19,55.475z"/>
	<path fill="#40B549" d="M42.322,50.111H40.74h-0.233H28.103v6.02H40.74l0,0h1.582l3.367-2.76v-0.52L42.322,50.111z M44.971,53.111
		l-1.178,0.965v-1.922L44.971,53.111z M40.458,53.611c0.101,0.104,0.164,0.244,0.164,0.402c0,0.157-0.063,0.297-0.164,0.399
		c-0.104,0.104-0.24,0.166-0.396,0.166H28.759v-1.134h11.306C40.218,53.447,40.354,53.51,40.458,53.611z M28.759,52.791v-1.133
		h11.306c0.154,0,0.291,0.063,0.395,0.164c0.102,0.104,0.164,0.242,0.164,0.4c0,0.159-0.063,0.299-0.164,0.401
		c-0.104,0.104-0.24,0.165-0.395,0.166L28.759,52.791L28.759,52.791z M40.411,50.768c-0.019,0.032-0.039,0.063-0.063,0.088
		c-0.041,0.051-0.088,0.086-0.135,0.11c-0.049,0.022-0.098,0.035-0.15,0.035H28.759v-0.233H40.411z M28.759,55.236h11.306
		c0.053,0,0.103,0.012,0.149,0.035c0.072,0.037,0.146,0.102,0.197,0.193c0.001,0.003,0.002,0.006,0.003,0.01H28.759V55.236z
		 M42.087,55.475h-0.974c-0.049-0.193-0.139-0.371-0.262-0.518c-0.002-0.002-0.006-0.004-0.008-0.008
		c0.027-0.023,0.055-0.047,0.078-0.072c0.221-0.221,0.355-0.527,0.355-0.863s-0.137-0.643-0.355-0.863
		c-0.01-0.012-0.021-0.021-0.033-0.03c0.012-0.013,0.023-0.021,0.033-0.031c0.221-0.221,0.355-0.528,0.355-0.864
		c0-0.334-0.137-0.642-0.355-0.863c-0.023-0.025-0.051-0.049-0.078-0.072c0.049-0.059,0.094-0.12,0.133-0.188
		c0.059-0.103,0.103-0.215,0.133-0.332h0.979l1.047,0.853v2.995L42.087,55.475z"/>
</g>
<path fill="#40B549" d="M56.07,46.432c0-1.709-0.652-3.422-1.957-4.727s-3.018-1.959-4.727-1.959s-3.422,0.654-4.726,1.959
	c-0.192,0.191-0.369,0.393-0.533,0.602c-0.603,0.086-1.185,0.36-1.647,0.824c-0.567,0.566-0.854,1.316-0.854,2.061
	c-0.001,0.57,0.167,1.143,0.501,1.635l-0.106,0.105c-0.059,0.06-0.102,0.131-0.119,0.226c-0.008,0.048-0.01,0.102,0.005,0.161
	c0.014,0.06,0.047,0.123,0.098,0.175l0.986,0.985c0.05,0.051,0.114,0.084,0.174,0.098c0.09,0.021,0.165,0.009,0.228-0.014
	s0.114-0.059,0.16-0.102l4.232-4.234c0.061-0.06,0.102-0.131,0.119-0.227c0.01-0.047,0.011-0.102-0.004-0.16
	c-0.016-0.059-0.047-0.123-0.1-0.174l-0.984-0.986c-0.051-0.051-0.114-0.082-0.174-0.098c-0.031-0.007-0.061-0.01-0.088-0.01
	c0.842-0.623,1.84-0.936,2.842-0.936c1.227,0.002,2.449,0.467,3.383,1.401c0.937,0.937,1.402,2.157,1.402,3.383
	c0,1.009-0.316,2.013-0.947,2.856c0.002-0.034,0-0.073-0.01-0.114c-0.016-0.06-0.047-0.123-0.099-0.175l-0.985-0.985
	c-0.051-0.051-0.115-0.084-0.175-0.099c-0.09-0.021-0.165-0.008-0.228,0.015c-0.063,0.022-0.115,0.058-0.159,0.103l-4.233,4.233
	c-0.059,0.06-0.102,0.132-0.119,0.226c-0.01,0.047-0.011,0.102,0.004,0.16c0.015,0.06,0.047,0.125,0.099,0.176l0.985,0.983
	c0.051,0.052,0.115,0.084,0.174,0.099c0.091,0.021,0.166,0.01,0.228-0.012c0.063-0.023,0.115-0.059,0.16-0.104l0.08-0.079
	c0.119,0.08,0.241,0.151,0.37,0.213l-1.252,1.252l0.464,0.465l1.485-1.483c0.187,0.035,0.375,0.055,0.564,0.055
	c0.746,0.001,1.492-0.285,2.063-0.854c0.457-0.459,0.732-1.035,0.82-1.633c0.223-0.172,0.438-0.359,0.643-0.563
	C55.418,49.854,56.07,48.141,56.07,46.432z M42.284,45.191c0-0.58,0.22-1.155,0.661-1.598c0.441-0.441,1.019-0.66,1.597-0.66
	c0.401,0,0.804,0.105,1.159,0.318l-3.098,3.098C42.391,45.994,42.284,45.594,42.284,45.191z M47.146,43.938l-3.883,3.883l-0.602-0.6
	l3.884-3.884L47.146,43.938z M47.984,52.545l3.885-3.885l0.602,0.602l-3.884,3.883L47.984,52.545z M52.188,52.887
	c-0.442,0.441-1.02,0.662-1.599,0.662c-0.401,0-0.803-0.107-1.159-0.32l3.1-3.098c0.213,0.355,0.318,0.758,0.318,1.16
	C52.848,51.869,52.628,52.445,52.188,52.887z M53.473,50.861c-0.033-0.221-0.092-0.438-0.175-0.648
	c1.024-1.055,1.541-2.424,1.54-3.791c0.001-1.393-0.531-2.785-1.593-3.848c-1.063-1.063-2.456-1.594-3.849-1.594
	c-1.354,0-2.707,0.506-3.758,1.51c-0.211-0.086-0.43-0.145-0.65-0.18c0.046-0.047,0.091-0.095,0.138-0.142
	c1.179-1.178,2.72-1.767,4.263-1.767s3.084,0.589,4.26,1.767c1.179,1.177,1.766,2.718,1.767,4.261
	c-0.001,1.545-0.588,3.084-1.767,4.262C53.591,50.75,53.532,50.807,53.473,50.861z"/>
<g>
	<polygon fill="#40B549" points="51.854,22.256 51.854,22.257 51.854,22.256 	"/>
	<path fill="#40B549" d="M60.878,27.131c-0.047-0.128-0.123-0.25-0.226-0.351l-0.258-0.258c0.068-0.112,0.105-0.241,0.107-0.37
		c0.004-0.183-0.064-0.372-0.206-0.512c-0.101-0.101-0.224-0.164-0.354-0.19c-0.025-0.13-0.09-0.254-0.189-0.354
		c-0.1-0.101-0.225-0.164-0.354-0.191c-0.027-0.129-0.092-0.254-0.19-0.354c-0.117-0.117-0.269-0.184-0.42-0.201l-0.792-1.189
		c0.217-0.916,0.22-1.886-0.004-2.813c-0.234-0.976-0.723-1.904-1.479-2.66c-1.129-1.129-2.611-1.695-4.09-1.694
		c-1.48-0.001-2.961,0.565-4.09,1.694c-1.13,1.129-1.695,2.611-1.695,4.09s0.565,2.961,1.695,4.09
		c0.756,0.755,1.684,1.243,2.658,1.478c0.928,0.224,1.896,0.22,2.814,0.004l1.258,0.833c0.031,0.118,0.092,0.231,0.184,0.322
		c0.1,0.101,0.225,0.163,0.354,0.191c0.027,0.129,0.092,0.253,0.191,0.354c0.1,0.101,0.225,0.164,0.354,0.191
		c0.027,0.129,0.09,0.253,0.19,0.354c0.14,0.14,0.329,0.209,0.513,0.206c0.139-0.002,0.277-0.045,0.397-0.126l0.255,0.255
		c0.102,0.102,0.223,0.178,0.352,0.226c0.388,0.142,0.83,0.042,1.14-0.266l1.618-1.619c0.205-0.206,0.316-0.472,0.328-0.74
		C60.945,27.396,60.925,27.259,60.878,27.131z M60.13,26.5L60.13,26.5l-0.051-0.051L60.13,26.5z M59.756,26.104
		c0.014-0.008,0.026-0.014,0.04-0.014c0.017,0,0.026,0.005,0.037,0.014c0.01,0.011,0.015,0.02,0.015,0.038s-0.007,0.035-0.023,0.051
		l-0.41,0.41L59.756,26.104z M53.786,26.678c-0.854,0.224-1.771,0.238-2.64,0.029c-0.867-0.209-1.684-0.64-2.35-1.305
		c-1.002-1.002-1.501-2.312-1.502-3.625c0.001-1.313,0.5-2.624,1.502-3.625c1.002-1.002,2.313-1.502,3.627-1.502
		c1.313,0,2.623,0.5,3.625,1.502c0.665,0.666,1.096,1.482,1.305,2.349s0.195,1.784-0.028,2.638l-0.037,0.143l0.862,1.296
		l-0.562,0.565l-1.192-1.191l-1.78-3.786L54.6,20.133L54.4,19.714l-0.33,0.329c-0.141,0.143-0.327,0.24-0.512,0.278l-0.053,0.01
		l-0.218,0.042l-0.054,0.274c-0.039,0.184-0.129,0.356-0.271,0.5l-0.005,0.004l0,0c-0.144,0.142-0.317,0.231-0.501,0.27l-0.053,0.01
		l-0.215,0.042l-0.056,0.273c-0.038,0.181-0.127,0.352-0.266,0.493l-0.009,0.008l-0.01,0.011v-0.001
		c-0.142,0.138-0.312,0.224-0.49,0.263l-0.055,0.011l-0.217,0.042l-0.056,0.273c-0.04,0.187-0.13,0.36-0.271,0.502l-0.346,0.346
		l0.52,0.218l3.737,1.76l1.196,1.196l-0.637,0.64l-1.311-0.866L53.786,26.678z M55.79,28.041c-0.013,0.008-0.026,0.014-0.039,0.014
		c-0.019,0-0.026-0.005-0.038-0.014c-0.009-0.01-0.014-0.021-0.016-0.038c0.002-0.017,0.009-0.035,0.023-0.051l0,0l0.42-0.421
		L55.79,28.041z M57.126,25.608l-0.789,0.794l-1.274-1.275l-3.562-1.676c0.06-0.105,0.104-0.215,0.14-0.327
		c0.246-0.075,0.477-0.208,0.672-0.397l0.014-0.014l0.002-0.002L52.34,22.7l0,0c0.191-0.196,0.326-0.429,0.402-0.675
		c0.248-0.076,0.482-0.211,0.68-0.407l0.006-0.007c0.198-0.198,0.338-0.436,0.414-0.687c0.116-0.036,0.229-0.084,0.338-0.147
		l1.674,3.558L57.126,25.608z M56.333,28.584c-0.013,0.009-0.024,0.014-0.038,0.015c-0.018-0.001-0.025-0.005-0.037-0.015
		c-0.009-0.009-0.015-0.02-0.015-0.038c0-0.017,0.008-0.035,0.022-0.051l0.021-0.021l2.38-3.459
		c0.013-0.009,0.024-0.014,0.038-0.015c0.018,0.001,0.027,0.005,0.037,0.014c0.01,0.011,0.014,0.021,0.015,0.039
		c-0.001,0.017-0.007,0.034-0.022,0.05l-0.021,0.022L56.333,28.584z M56.878,29.128c-0.013,0.009-0.024,0.015-0.039,0.015
		c-0.017,0-0.026-0.005-0.036-0.014c-0.01-0.01-0.015-0.021-0.015-0.038c0-0.017,0.007-0.035,0.022-0.051l0.021-0.021l2.38-3.46
		c0.013-0.008,0.024-0.014,0.038-0.014c0.02,0,0.027,0.004,0.038,0.014c0.01,0.01,0.015,0.02,0.015,0.038
		c0,0.017-0.007,0.035-0.021,0.051l-0.021,0.021L56.878,29.128z M60.146,27.805l-1.619,1.619c-0.088,0.089-0.198,0.133-0.303,0.136
		c-0.05,0.003-0.099-0.005-0.143-0.021c-0.043-0.017-0.082-0.04-0.115-0.074l-0.246-0.246L59.943,27l0.244,0.244
		c0.033,0.034,0.058,0.072,0.074,0.116C60.313,27.49,60.279,27.672,60.146,27.805z"/>
</g>
<g>
	<path fill="#40B549" d="M60.559,33.926c-0.004-0.475-0.158-0.932-0.425-1.314c-0.268-0.381-0.649-0.689-1.116-0.866
		c-0.47-0.179-0.949-0.183-1.384-0.099l-0.002,0.002h-0.001h-0.006c-0.107,0.012-0.244,0.011-0.4-0.006
		c-0.234-0.021-0.515-0.074-0.818-0.156c-0.305-0.079-0.635-0.186-0.975-0.314l-0.013-0.005l-0.004-0.001
		c-0.451-0.172-0.865-0.361-1.205-0.555c-0.17-0.096-0.321-0.191-0.448-0.284c-0.125-0.092-0.229-0.182-0.302-0.261l-0.004-0.004
		l-0.002-0.003l0,0l0,0h-0.001c-0.27-0.352-0.628-0.669-1.098-0.847c-0.467-0.178-0.959-0.202-1.412-0.093
		c-0.453,0.108-0.871,0.349-1.19,0.701c-0.288,0.317-0.548,0.611-0.858,1.03c-0.313,0.42-0.676,0.961-1.181,1.78
		c-1.348,2.188-1.767,3.22-1.839,3.408c-0.007,0.021-0.012,0.028-0.012,0.032l0,0c-0.141,0.375-0.118,0.775,0.035,1.115
		c0.152,0.342,0.439,0.629,0.818,0.771c0.133,0.051,0.346,0.131,0.57,0.191c0.113,0.029,0.229,0.056,0.344,0.067
		c0.059,0.007,0.117,0.011,0.18,0.007c0.062-0.002,0.125-0.013,0.193-0.033c0.146-0.049,0.293-0.119,0.441-0.195
		c0.223-0.115,0.449-0.25,0.66-0.367s0.41-0.216,0.549-0.259c0.436-0.136,0.957-0.195,1.52-0.16
		c0.563,0.034,1.168,0.162,1.773,0.394l0.051,0.02c0.605,0.23,1.143,0.537,1.586,0.885c0.443,0.35,0.794,0.737,1.027,1.129
		c0.051,0.084,0.104,0.202,0.158,0.342c0.082,0.205,0.16,0.451,0.244,0.692c0.084,0.24,0.172,0.476,0.287,0.677
		c0.036,0.063,0.077,0.111,0.122,0.153c0.076,0.075,0.16,0.134,0.248,0.188c0.132,0.078,0.271,0.146,0.404,0.203
		c0.133,0.059,0.255,0.104,0.342,0.139c0.379,0.143,0.782,0.119,1.123-0.033s0.624-0.436,0.769-0.811h0.002c0,0,0-0.004,0.002-0.008
		l0,0l0,0c0.002-0.006,0.006-0.013,0.01-0.023c0.072-0.191,0.445-1.24,0.892-3.771c0.167-0.948,0.255-1.594,0.302-2.114
		C60.561,34.748,60.563,34.355,60.559,33.926z M53.463,30.068l-0.002-0.001l0,0L53.463,30.068z M53.461,30.067L53.461,30.067
		L53.461,30.067L53.461,30.067L53.461,30.067z M53.461,30.067L53.461,30.067L53.461,30.067L53.461,30.067z M59.861,35.211
		c-0.043,0.492-0.129,1.119-0.293,2.059c-0.44,2.498-0.807,3.508-0.858,3.648c-0.004,0.007-0.005,0.012-0.006,0.016l-0.002,0.002
		l0,0l0,0l-0.001,0.004L58.7,40.941c-0.08,0.211-0.236,0.367-0.427,0.453c-0.19,0.084-0.41,0.098-0.621,0.019
		c-0.131-0.05-0.325-0.124-0.494-0.209c-0.083-0.042-0.161-0.087-0.215-0.126c-0.025-0.02-0.047-0.035-0.061-0.049
		c-0.006-0.006-0.01-0.01-0.012-0.014l-0.002-0.002c-0.049-0.084-0.104-0.205-0.155-0.345c-0.08-0.207-0.159-0.455-0.243-0.694
		c-0.086-0.242-0.176-0.478-0.295-0.68c-0.283-0.473-0.688-0.917-1.186-1.309c-0.5-0.391-1.094-0.729-1.76-0.981l-0.051-0.019
		c-0.666-0.254-1.334-0.396-1.967-0.436s-1.229,0.024-1.755,0.189c-0.149,0.047-0.297,0.115-0.446,0.189
		c-0.224,0.114-0.451,0.25-0.664,0.368c-0.209,0.117-0.408,0.22-0.55,0.265c-0.004,0.002-0.051,0.006-0.116-0.002
		c-0.103-0.014-0.242-0.049-0.375-0.092c-0.136-0.044-0.264-0.093-0.357-0.128c-0.211-0.081-0.367-0.237-0.451-0.428
		c-0.086-0.188-0.1-0.41-0.02-0.621l0.002-0.004v-0.003l0,0c0.002-0.001,0.002-0.008,0.008-0.018
		c0.053-0.141,0.451-1.139,1.783-3.299c0.5-0.811,0.853-1.336,1.147-1.732c0.295-0.396,0.533-0.666,0.817-0.98
		c0.229-0.25,0.529-0.424,0.857-0.502c0.329-0.079,0.686-0.062,1.025,0.067c0.33,0.125,0.594,0.352,0.809,0.632v-0.001l-0.002-0.001
		c0.01,0.012,0.016,0.019,0.021,0.028c0.009,0.009,0.016,0.017,0.025,0.03l-0.004-0.005l0.006,0.005
		c0.11,0.12,0.244,0.234,0.396,0.347c0.229,0.166,0.501,0.328,0.807,0.482c0.305,0.154,0.643,0.303,1.002,0.439h0.002l0.014,0.006
		c0.478,0.182,0.941,0.324,1.363,0.414c0.211,0.046,0.412,0.078,0.6,0.097s0.363,0.022,0.527,0.007l0,0
		c0.018-0.002,0.026-0.004,0.039-0.005c0.012-0.002,0.021-0.004,0.033-0.007h-0.001h-0.002c0.347-0.066,0.695-0.059,1.024,0.066
		c0.341,0.129,0.617,0.354,0.812,0.631s0.304,0.607,0.308,0.945C59.904,34.357,59.904,34.719,59.861,35.211z"/>
	<path fill="#40B549" d="M53.193,32.669c-0.19-0.425-0.547-0.778-1.016-0.956c-0.47-0.18-0.971-0.15-1.395,0.039
		c-0.424,0.191-0.779,0.546-0.957,1.016c-0.18,0.471-0.15,0.971,0.041,1.396c0.189,0.425,0.545,0.778,1.015,0.957
		s0.97,0.149,1.396-0.041c0.424-0.19,0.777-0.545,0.957-1.017C53.413,33.594,53.384,33.094,53.193,32.669z M52.45,34.132
		c-0.179-0.063-0.367-0.052-0.528,0.021c-0.163,0.072-0.302,0.211-0.369,0.395l-0.015,0.034c-0.142,0.001-0.282-0.021-0.422-0.074
		s-0.263-0.131-0.365-0.225l0.015-0.035c0.067-0.183,0.059-0.377-0.018-0.541c-0.07-0.16-0.206-0.296-0.381-0.365
		c0.007-0.112,0.031-0.228,0.074-0.339c0.041-0.111,0.101-0.214,0.17-0.302c0.176,0.062,0.363,0.048,0.521-0.022
		c0.165-0.074,0.304-0.213,0.372-0.395l0.012-0.032c0.144-0.002,0.287,0.022,0.428,0.076c0.139,0.053,0.259,0.127,0.361,0.219
		l-0.014,0.036c-0.07,0.184-0.059,0.378,0.016,0.542c0.072,0.162,0.209,0.299,0.387,0.368c-0.008,0.113-0.03,0.227-0.073,0.339
		C52.578,33.941,52.521,34.042,52.45,34.132z"/>
	<g>
		<path fill="#40B549" d="M57.009,34.991c0.204,0.077,0.425,0.065,0.609-0.019c0.187-0.082,0.342-0.238,0.419-0.443
			c0.078-0.205,0.064-0.426-0.02-0.61c-0.082-0.187-0.238-0.341-0.442-0.419s-0.427-0.066-0.609,0.018
			c-0.187,0.084-0.342,0.239-0.42,0.444s-0.063,0.425,0.019,0.61C56.648,34.757,56.805,34.913,57.009,34.991z M57.159,34.195
			c0.016-0.037,0.041-0.063,0.073-0.079c0.035-0.015,0.07-0.017,0.107-0.003c0.038,0.015,0.064,0.041,0.08,0.074
			c0.014,0.033,0.016,0.069,0.002,0.106s-0.039,0.063-0.072,0.079c-0.035,0.016-0.072,0.018-0.107,0.003
			c-0.038-0.015-0.063-0.04-0.079-0.073S57.146,34.232,57.159,34.195z"/>
		<path fill="#40B549" d="M56.729,35.725c-0.205-0.078-0.424-0.063-0.609,0.019c-0.186,0.083-0.342,0.239-0.419,0.444
			c-0.078,0.203-0.063,0.424,0.019,0.609s0.239,0.342,0.444,0.419s0.424,0.065,0.608-0.019c0.187-0.082,0.342-0.239,0.42-0.444
			c0.076-0.204,0.064-0.425-0.02-0.61C57.09,35.959,56.936,35.803,56.729,35.725z M56.503,36.598
			c-0.032,0.016-0.069,0.019-0.106,0.004c-0.037-0.014-0.063-0.039-0.078-0.074c-0.016-0.032-0.019-0.069-0.004-0.106
			c0.016-0.037,0.041-0.063,0.074-0.077c0.034-0.016,0.069-0.019,0.107-0.005c0.037,0.017,0.063,0.041,0.078,0.074
			c0.015,0.034,0.018,0.069,0.003,0.106S56.538,36.584,56.503,36.598z"/>
		<path fill="#40B549" d="M58.706,35.46c-0.082-0.187-0.237-0.341-0.442-0.419s-0.427-0.066-0.609,0.018
			c-0.188,0.084-0.342,0.24-0.42,0.443c-0.078,0.205-0.065,0.426,0.019,0.611c0.083,0.185,0.238,0.34,0.442,0.419
			c0.205,0.077,0.426,0.065,0.611-0.019c0.186-0.082,0.342-0.24,0.418-0.445C58.803,35.865,58.79,35.646,58.706,35.46z
			 M58.109,35.836c-0.014,0.037-0.039,0.063-0.073,0.079c-0.033,0.015-0.07,0.017-0.106,0.003c-0.037-0.014-0.063-0.04-0.078-0.074
			c-0.017-0.033-0.019-0.07-0.004-0.107c0.016-0.036,0.041-0.063,0.073-0.077c0.034-0.017,0.07-0.019,0.106-0.005
			c0.037,0.017,0.064,0.041,0.08,0.074C58.122,35.764,58.124,35.799,58.109,35.836z"/>
		<path fill="#40B549" d="M56.081,35.668c0.187-0.083,0.34-0.238,0.418-0.443s0.065-0.426-0.019-0.611
			c-0.082-0.184-0.237-0.34-0.442-0.418c-0.205-0.077-0.427-0.064-0.61,0.019c-0.185,0.082-0.341,0.239-0.419,0.444
			c-0.077,0.203-0.063,0.425,0.019,0.609c0.084,0.187,0.24,0.34,0.445,0.418C55.675,35.764,55.896,35.752,56.081,35.668z
			 M55.626,34.998c-0.015-0.033-0.019-0.07-0.004-0.107c0.017-0.037,0.041-0.063,0.073-0.078c0.035-0.016,0.07-0.018,0.107-0.004
			c0.037,0.016,0.063,0.041,0.079,0.074c0.015,0.034,0.017,0.07,0.003,0.107s-0.039,0.063-0.074,0.078
			c-0.033,0.016-0.069,0.018-0.106,0.004S55.643,35.031,55.626,34.998z"/>
	</g>
</g>
<g>
	<polyline fill="#40B549" points="23.737,5.759 28.703,5.759 28.703,5.103 23.737,5.103 	"/>
	<polyline fill="#40B549" points="23.737,7.472 28.703,7.472 28.703,6.815 23.737,6.815 	"/>
	<polyline fill="#40B549" points="23.737,9.184 28.703,9.184 28.703,8.528 23.737,8.528 	"/>
	<polyline fill="#40B549" points="23.737,10.896 28.703,10.896 28.703,10.24 23.737,10.24 	"/>
	<polyline fill="#40B549" points="31.407,5.759 36.374,5.759 36.374,5.103 31.407,5.103 	"/>
	<polyline fill="#40B549" points="31.407,7.472 36.374,7.472 36.374,6.815 31.407,6.815 	"/>
	<polyline fill="#40B549" points="31.407,9.184 36.374,9.184 36.374,8.528 31.407,8.528 	"/>
	<polyline fill="#40B549" points="31.407,10.896 36.374,10.896 36.374,10.24 31.407,10.24 	"/>
	<path fill="#40B549" d="M38.697,4.631c-0.196-0.199-0.475-0.323-0.778-0.323v0.657c0.125,0,0.233,0.049,0.315,0.13
		c0.08,0.082,0.129,0.19,0.129,0.315v7.495c0,0.124-0.049,0.233-0.129,0.315c-0.082,0.081-0.19,0.13-0.315,0.13h-6.768v0.502
		c0,0.063-0.012,0.099-0.025,0.126c-0.01,0.021-0.023,0.037-0.041,0.053c-0.027,0.025-0.072,0.051-0.137,0.07
		c-0.065,0.02-0.148,0.031-0.242,0.031h-1.299c-0.083,0-0.158-0.009-0.22-0.024c-0.046-0.013-0.083-0.027-0.112-0.043
		c-0.043-0.024-0.066-0.049-0.082-0.077c-0.018-0.028-0.031-0.066-0.032-0.136V13.35h-6.743c-0.124,0-0.233-0.049-0.314-0.13
		c-0.082-0.082-0.131-0.191-0.131-0.315V5.41c0-0.125,0.049-0.233,0.131-0.315c0.081-0.081,0.189-0.13,0.313-0.13v6.917
		c0,0.11,0.006,0.22,0.024,0.328c0.016,0.082,0.037,0.163,0.07,0.243c0.025,0.06,0.058,0.119,0.1,0.175
		c0.062,0.084,0.148,0.16,0.252,0.209c0.104,0.049,0.218,0.071,0.334,0.071h4.052h1.632c0.172,0,0.326,0.001,0.456,0.013
		c0.097,0.008,0.179,0.022,0.239,0.041c0.046,0.014,0.079,0.03,0.104,0.046c0.018,0.012,0.031,0.023,0.043,0.036
		c0.017,0.021,0.033,0.045,0.047,0.092c0.014,0.045,0.025,0.111,0.025,0.205v0.328h0.925V13.34c0-0.073,0.007-0.131,0.017-0.174
		c0.009-0.038,0.02-0.065,0.03-0.084c0.021-0.036,0.038-0.054,0.071-0.076c0.025-0.016,0.061-0.032,0.107-0.046
		c0.072-0.021,0.17-0.036,0.287-0.043c0.119-0.007,0.254-0.008,0.4-0.008h1.632h4.054c0.137,0,0.272-0.032,0.389-0.102
		c0.087-0.052,0.158-0.122,0.21-0.197c0.08-0.114,0.122-0.236,0.146-0.358c0.025-0.123,0.033-0.245,0.033-0.369V4.085
		c0-0.11-0.006-0.221-0.024-0.329c-0.015-0.082-0.036-0.163-0.069-0.243c-0.023-0.06-0.058-0.119-0.1-0.175
		c-0.063-0.084-0.148-0.159-0.253-0.208c-0.103-0.049-0.218-0.072-0.332-0.072h-5.197h-0.488c-0.221,0-0.431,0.049-0.621,0.136
		c-0.326,0.151-0.589,0.413-0.754,0.736c-0.07-0.135-0.155-0.26-0.256-0.37c-0.141-0.152-0.31-0.278-0.499-0.366
		c-0.19-0.087-0.401-0.136-0.622-0.136h-0.487h-5.196c-0.137,0-0.273,0.032-0.389,0.101c-0.088,0.052-0.158,0.123-0.211,0.198
		c-0.08,0.114-0.122,0.236-0.147,0.358c-0.024,0.122-0.033,0.246-0.033,0.369v0.223c-0.303,0-0.58,0.124-0.778,0.323
		c-0.2,0.2-0.324,0.477-0.324,0.78v7.495c0,0.303,0.124,0.581,0.322,0.779c0.199,0.199,0.477,0.323,0.779,0.323h6.1
		c0.016,0.095,0.043,0.187,0.084,0.269c0.049,0.095,0.115,0.179,0.19,0.247c0.114,0.102,0.247,0.168,0.386,0.209
		s0.283,0.058,0.43,0.058h1.299c0.13,0,0.258-0.014,0.383-0.046c0.093-0.024,0.184-0.058,0.27-0.106
		c0.129-0.072,0.247-0.177,0.328-0.316c0.056-0.095,0.092-0.203,0.109-0.315h6.123c0.304,0,0.582-0.124,0.778-0.323
		c0.199-0.198,0.324-0.476,0.324-0.779V5.41C39.021,5.107,38.896,4.83,38.697,4.631z M22.873,4.085c0-0.083,0.005-0.156,0.017-0.215
		c0.008-0.044,0.018-0.079,0.027-0.102c0.008-0.019,0.015-0.029,0.02-0.036c0.007-0.009,0.007-0.009,0.011-0.01
		c0.003-0.002,0.015-0.007,0.05-0.007h5.196h0.487c0.123,0,0.24,0.026,0.348,0.076c0.32,0.147,0.566,0.511,0.566,0.949v0.328h0.925
		V4.741c0-0.292,0.108-0.551,0.277-0.735c0.085-0.091,0.183-0.165,0.29-0.214s0.223-0.076,0.346-0.076h0.488h5.197
		c0.041,0,0.049,0.007,0.051,0.008s0.004,0.001,0.013,0.011c0.01,0.015,0.026,0.052,0.041,0.114c0.012,0.061,0.02,0.143,0.02,0.236
		v7.797c0,0.082-0.006,0.156-0.016,0.215c-0.008,0.043-0.019,0.078-0.029,0.102c-0.006,0.018-0.014,0.029-0.018,0.035
		c-0.009,0.009-0.009,0.008-0.013,0.011c-0.004,0.001-0.017,0.007-0.049,0.007h-4.054h-1.632c-0.172,0-0.344,0-0.511,0.015
		c-0.126,0.011-0.251,0.029-0.374,0.066c-0.055,0.017-0.109,0.038-0.162,0.063V5.535h-0.656v6.861
		c-0.059-0.028-0.117-0.049-0.176-0.067c-0.142-0.041-0.285-0.059-0.431-0.068c-0.146-0.009-0.292-0.009-0.442-0.009h-1.632h-4.052
		c-0.041,0-0.049-0.007-0.051-0.009c-0.003-0.001-0.005-0.001-0.012-0.012c-0.01-0.013-0.029-0.052-0.041-0.113
		c-0.014-0.063-0.021-0.144-0.021-0.236V4.085H22.873z"/>
</g>
<g>
	<circle fill="#40B549" cx="17.753" cy="13.257" r="0.456"/>
	<path fill="#40B549" d="M4.129,4.03v8.388h14.519V12.13v-8.1H4.129z M4.704,4.606h13.368v7.237H4.704V4.606z"/>
</g>
<path fill="#40B549" d="M19.394,3.285c-0.119-0.12-0.287-0.195-0.47-0.195H3.847c-0.184,0-0.352,0.076-0.471,0.195
	c-0.119,0.119-0.195,0.288-0.195,0.47v8.814v0.958v0.385c0,0.183,0.076,0.351,0.195,0.47c0.119,0.12,0.287,0.195,0.471,0.195H9.28
	v0.598v-0.02c-0.001,0.272-0.11,0.516-0.288,0.694c-0.18,0.179-0.423,0.288-0.695,0.288H7.43H7.101H6.772v1.515h0.34H7.43h7.946
	h0.328h0.328v-1.515h-0.339h-0.317h-0.869c-0.273,0-0.517-0.109-0.695-0.288c-0.178-0.178-0.287-0.422-0.288-0.694v0.004
	l-0.002-0.582h5.402c0.183,0,0.351-0.075,0.47-0.195c0.12-0.119,0.195-0.287,0.195-0.47v-0.385v-0.958V3.755
	C19.589,3.573,19.514,3.404,19.394,3.285z M19.013,12.569v0.958v0.385c0,0.026-0.009,0.046-0.025,0.063
	c-0.018,0.016-0.038,0.026-0.063,0.026h-5.98l0.005,1.151v0.002c0,0.429,0.175,0.821,0.456,1.102
	c0.28,0.282,0.673,0.457,1.103,0.457h0.869v0.362H7.43v-0.362h0.866c0.43,0,0.821-0.175,1.103-0.457
	c0.282-0.281,0.456-0.673,0.456-1.102v-0.021L9.857,14h-6.01c-0.025,0-0.047-0.01-0.063-0.026c-0.016-0.016-0.026-0.037-0.026-0.063
	v-0.385v-0.958V3.755c0-0.025,0.01-0.045,0.026-0.063C3.8,3.676,3.821,3.666,3.847,3.666h15.077c0.025,0,0.046,0.01,0.063,0.026
	c0.017,0.018,0.025,0.038,0.025,0.063L19.013,12.569L19.013,12.569z"/>
<g>
	<path fill="#40B549" d="M50.95,9.723c-0.445-0.446-1.063-0.722-1.743-0.722c-0.113,0-0.225,0.009-0.333,0.024v-0.01
		c0-0.248-0.103-0.476-0.265-0.639c-0.164-0.163-0.391-0.264-0.639-0.264h-6.52c-0.248,0-0.477,0.101-0.639,0.264
		s-0.266,0.391-0.266,0.639v4.717c0,0.883,0.359,1.686,0.938,2.266s1.383,0.939,2.267,0.939h1.916c0.884,0,1.688-0.359,2.267-0.939
		c0.541-0.54,0.889-1.275,0.934-2.089c0.111,0.016,0.225,0.025,0.339,0.025c0.681,0,1.298-0.277,1.743-0.723
		c0.445-0.444,0.723-1.063,0.723-1.744C51.672,10.786,51.396,10.168,50.95,9.723z M48.874,10.645c0.101-0.04,0.21-0.062,0.326-0.062
		c0.245,0,0.464,0.098,0.625,0.259c0.159,0.161,0.259,0.38,0.259,0.625c0,0.246-0.1,0.464-0.259,0.626
		c-0.161,0.16-0.38,0.259-0.625,0.259c-0.116,0-0.228-0.023-0.326-0.063V10.645z M48.217,13.732c0,0.705-0.283,1.339-0.746,1.802
		c-0.462,0.461-1.097,0.745-1.802,0.746h-1.916c-0.704-0.001-1.339-0.285-1.801-0.746c-0.464-0.462-0.746-1.097-0.746-1.802V9.016
		c0-0.069,0.026-0.128,0.071-0.175c0.045-0.045,0.105-0.072,0.175-0.072h6.519c0.069,0,0.129,0.027,0.176,0.072
		c0.045,0.046,0.07,0.105,0.07,0.175V13.732z M50.486,12.747c-0.329,0.328-0.778,0.529-1.279,0.529
		c-0.113,0-0.227-0.012-0.333-0.031v-0.271c0.104,0.022,0.215,0.034,0.326,0.034c0.424,0,0.812-0.172,1.09-0.451
		c0.276-0.278,0.451-0.666,0.451-1.09c0-0.424-0.175-0.812-0.451-1.089c-0.278-0.279-0.666-0.452-1.09-0.452
		c-0.111,0-0.222,0.012-0.326,0.035V9.69c0.106-0.021,0.22-0.032,0.333-0.032c0.501,0,0.95,0.202,1.279,0.53
		c0.328,0.329,0.529,0.779,0.529,1.28C51.018,11.969,50.814,12.418,50.486,12.747z"/>
	<path fill="#40B549" d="M41.833,6.244c0.077,0.078,0.114,0.176,0.114,0.278s-0.037,0.2-0.114,0.278
		c-0.129,0.128-0.127,0.336,0,0.464c0.128,0.128,0.336,0.128,0.465,0c0.203-0.204,0.308-0.475,0.308-0.742
		c0-0.268-0.104-0.538-0.308-0.742l0,0c-0.077-0.078-0.114-0.176-0.114-0.278s0.037-0.2,0.114-0.277
		c0.127-0.128,0.127-0.336,0-0.465c-0.129-0.128-0.337-0.128-0.465,0c-0.204,0.205-0.31,0.475-0.308,0.742
		C41.523,5.77,41.629,6.04,41.833,6.244L41.833,6.244z"/>
	<path fill="#40B549" d="M44.445,6.244c0.076,0.078,0.113,0.176,0.115,0.278c-0.002,0.102-0.039,0.2-0.115,0.278
		c-0.129,0.128-0.129,0.336,0,0.464c0.127,0.128,0.336,0.128,0.464,0c0.204-0.204,0.309-0.475,0.309-0.742
		c0-0.268-0.104-0.538-0.309-0.742l0,0c-0.076-0.078-0.113-0.176-0.114-0.278c0.001-0.102,0.038-0.2,0.114-0.277
		c0.129-0.128,0.129-0.336,0-0.465c-0.128-0.128-0.337-0.128-0.464,0c-0.204,0.205-0.309,0.475-0.309,0.742
		S44.241,6.04,44.445,6.244L44.445,6.244z"/>
	<path fill="#40B549" d="M46.859,6.244c0.078,0.077,0.115,0.176,0.115,0.278s-0.037,0.2-0.115,0.278
		c-0.127,0.128-0.127,0.336,0,0.464c0.129,0.128,0.338,0.128,0.466,0c0.204-0.204,0.308-0.475,0.308-0.742
		c0-0.268-0.104-0.538-0.308-0.742l0,0l0,0c-0.078-0.077-0.114-0.176-0.115-0.278c0.001-0.102,0.037-0.2,0.115-0.277
		c0.128-0.128,0.128-0.336,0-0.465c-0.13-0.128-0.337-0.128-0.466,0l0,0c-0.202,0.205-0.307,0.475-0.307,0.742
		S46.657,6.04,46.859,6.244L46.859,6.244z"/>
	<rect x="41.464" y="9.046" fill="#40B549" width="6.494" height="0.656"/>
</g>
<g>
	<polyline fill="#40B549" points="17.549,20.227 17.549,26.087 18.206,26.087 18.206,20.227 	"/>
	<path fill="#FFFFFF" d="M18.542,24.503c0,0.32-0.259,0.579-0.58,0.579h-0.169c-0.321,0-0.579-0.259-0.579-0.579v-2.69
		c0-0.319,0.258-0.58,0.579-0.58h0.169c0.321,0,0.58,0.26,0.58,0.58V24.503z"/>
	<path fill="#40B549" d="M18.605,21.17c-0.163-0.164-0.393-0.265-0.644-0.265h-0.169c-0.249,0-0.479,0.101-0.642,0.265
		c-0.164,0.164-0.266,0.393-0.266,0.643v2.69c0,0.25,0.102,0.479,0.266,0.641c0.162,0.164,0.393,0.268,0.642,0.267h0.169
		c0.251,0.001,0.48-0.103,0.644-0.267c0.163-0.163,0.266-0.392,0.266-0.641v-2.69C18.871,21.563,18.769,21.334,18.605,21.17z
		 M18.14,24.68c-0.045,0.047-0.106,0.073-0.178,0.074h-0.169c-0.071-0.001-0.13-0.027-0.177-0.074
		c-0.047-0.046-0.074-0.106-0.074-0.177v-2.69c0-0.071,0.027-0.131,0.074-0.178c0.047-0.045,0.105-0.073,0.177-0.073h0.169
		c0.071,0,0.133,0.028,0.178,0.073c0.047,0.047,0.074,0.107,0.074,0.178v2.69C18.214,24.573,18.187,24.634,18.14,24.68z"/>
	<path fill="#40B549" d="M22.354,22.128c-0.384-0.674-1.011-1.228-1.785-1.617c-0.688-0.346-1.495-0.561-2.362-0.604v-2.191
		c0-0.264,0.105-0.499,0.278-0.671c0.173-0.171,0.407-0.278,0.67-0.278h0.901v-0.658h-0.901c-0.442,0-0.845,0.181-1.135,0.471
		s-0.471,0.693-0.471,1.136v2.191c-1.191,0.061-2.269,0.442-3.083,1.045c-0.443,0.329-0.809,0.727-1.063,1.175
		c-0.256,0.448-0.401,0.951-0.401,1.479v3.911v3.954c0,1.346,0.548,2.567,1.43,3.448c0.881,0.881,2.102,1.429,3.447,1.429
		c1.345,0,2.566-0.548,3.447-1.429c0.883-0.881,1.429-2.104,1.429-3.448v-3.954v-3.911C22.754,23.079,22.609,22.576,22.354,22.128z
		 M22.098,31.471c0,1.166-0.472,2.221-1.237,2.985c-0.764,0.765-1.816,1.233-2.982,1.233s-2.219-0.471-2.983-1.233
		c-0.765-0.767-1.235-1.819-1.235-2.985v-2.848c0-0.135,0.023-0.266,0.072-0.398c0.084-0.229,0.244-0.459,0.479-0.676
		c0.353-0.325,0.872-0.612,1.503-0.814c0.632-0.203,1.373-0.32,2.164-0.32c1.206-0.001,2.294,0.275,3.056,0.702
		c0.381,0.212,0.678,0.459,0.872,0.719c0.098,0.128,0.171,0.26,0.219,0.391c0.048,0.132,0.073,0.263,0.073,0.398L22.098,31.471
		L22.098,31.471z M22.098,27.168c-0.036-0.035-0.071-0.069-0.108-0.104c-0.445-0.407-1.046-0.73-1.748-0.957
		c-0.701-0.224-1.508-0.353-2.363-0.353c-1.305,0.002-2.491,0.293-3.375,0.786c-0.326,0.181-0.611,0.391-0.844,0.627v-3.562
		c0-0.407,0.109-0.793,0.313-1.155c0.307-0.538,0.833-1.015,1.51-1.354c0.678-0.339,1.503-0.542,2.396-0.542
		c1.189-0.001,2.261,0.36,3.02,0.925c0.379,0.281,0.68,0.614,0.885,0.971c0.205,0.361,0.314,0.748,0.315,1.155L22.098,27.168
		L22.098,27.168z"/>
</g>
</svg>
