<?xml version="1.0" standalone="no"?>
<!DOCTYPE svg PUBLIC "-//W3C//DTD SVG 1.1//EN" "http://www.w3.org/Graphics/SVG/1.1/DTD/svg11.dtd">
<svg width="64px" height="60px" version="1.1" xmlns="http://www.w3.org/2000/svg" xmlns:xlink="http://www.w3.org/1999/xlink" xml:space="preserve" style="fill-rule:evenodd;clip-rule:evenodd;stroke-linejoin:round;stroke-miterlimit:1.41421;">
    <g id="Layer_1">
        <g>
            <g>
                <path d="M56.8939,19.5395C56.8939,19.5395 57.3295,23.4433 56.0129,28.9123C54.6546,34.5549 51.4632,41.8357 46.1174,46.365C24.6065,64.5907 3.61261,50.0541 3.61261,50.0541C3.61261,50.0541 9.10762,50.7758 13.2348,49.3269C19.312,47.1933 21.4812,44.9843 21.4812,44.9843C21.4812,44.9843 17.9093,45.3832 14.4129,42.5304C10.4095,39.2639 10.1157,36.645 10.1157,36.645C10.1157,36.645 12.067,36.9025 12.9559,36.8525C14.9501,36.7401 15.4479,36.3278 15.4479,36.3278C15.4479,36.3278 11.5216,35.6423 8.58946,32.1092C5.36364,28.2224 5.8733,24.2612 5.8733,24.2612C5.8733,24.2612 7.5003,25.0573 8.36531,25.3105C9.87116,25.7512 11.1888,25.7898 11.1888,25.7898C11.1888,25.7898 7.29136,23.001 6.39793,18.8837C4.98272,12.3619 7.64035,9.71213 7.64035,9.71213C7.64035,9.71213 12.5995,15.4363 18.1569,18.2136C26.7741,22.5202 32.7751,22.2939 32.7751,22.2939C32.7751,22.2939 32.058,18.7171 33.2442,15.2508C34.1237,12.6806 36.6638,10.1572 38.0929,9.271C46.7737,3.88843 53.615,11.0142 53.615,11.0142C53.615,11.0142 55.8186,10.7757 58.0744,9.8338C59.2163,9.35699 61.3843,8.15257 61.3843,8.15257C61.3843,8.15257 60.9404,9.96119 59.4933,11.8012C57.9685,13.74 56.1213,14.8417 56.1213,14.8417C56.1213,14.8417 57.6715,14.6799 59.8414,14.131C60.9998,13.838 63.1896,12.8505 63.1896,12.8505C63.1896,12.8505 61.4558,15.4606 59.7556,17.0404C58.8278,17.9024 56.8939,19.5395 56.8939,19.5395Z" style="fill:rgb(64,181,73);"/>
            </g>
        </g>
    </g>
</svg>
